<?xml version="1.0" encoding="utf-8"?>
<!-- Generator: Adobe Illustrator 24.2.1, SVG Export Plug-In . SVG Version: 6.00 Build 0)  -->
<svg version="1.1" id="Layer_1" xmlns="http://www.w3.org/2000/svg" xmlns:xlink="http://www.w3.org/1999/xlink" x="0px" y="0px"
	 viewBox="0 0 1914 700" style="enable-background:new 0 0 1914 700;" xml:space="preserve">
<style type="text/css">
	.st0{fill:#FFFFFF;}
	.st1{fill:#1D3060;}
	.st2{fill:#F36B80;}
	.st3{fill:#F2F2F2;}
	.st4{fill:#FAE0B2;}
	.st5{fill:#E35D67;}
	.st6{fill:#E1DDE7;}
	.st7{fill:#355389;}
	.st8{fill:#FFB3C5;}
	.st9{fill:#025166;}
	.st10{fill:#006080;}
	.st11{fill:#EA94AD;}
</style>
<g>
	<rect x="-5.86" y="-0.17" class="st0" width="1920" height="700"/>
</g>
<g>
	<rect x="-5.86" y="-0.17" class="st1" width="1920" height="700"/>
</g>
<g>
	<g>
		<path class="st2" d="M511.57,653.63c9.22-50.17,26.38-98.93,51.8-144.12c7.2-12.8,15.03-25.3,23.44-37.46
			c3.97-5.74-5.92-11.03-9.87-5.32c-30.14,43.6-52.74,91.7-66.64,141.8c-3.88,13.98-7.03,28.11-9.44,42.37
			c-0.46,2.73,0.76,5.51,3.88,6.3C507.41,657.89,511.07,656.38,511.57,653.63L511.57,653.63z"/>
	</g>
	<g>
		<path class="st2" d="M626.06,485.91c7.83,6.68,11.76,16.02,15.07,25.15c4,11.03,7.17,22.31,9.71,33.71
			c4.99,22.43,7.38,45.24,8.86,68.07c0.86,13.23,1.41,26.48,1.95,39.73c0.28,6.87,11.9,6.91,11.61,0
			c-1.97-47.76-4-96.55-20.35-142.32c-4.09-11.45-8.87-23.45-19.03-31.55c-2.26-1.8-5.6-2.05-7.82,0
			C624.01,480.59,623.86,484.03,626.06,485.91L626.06,485.91z"/>
	</g>
	<path class="st2" d="M643.33,445.36H488.53c-11.06,0-20.03,8.25-20.03,18.42l0,0c0,10.18,8.93,19.31,19.99,19.31l180.08,6.54
		c10.26,0,21.71-13.85,24.19-23.01l46.44-171.75c2.86-10.57-4.24-21.24-15.77-23.71l0,0c-11.24-2.41-22.5,3.89-25.36,14.17
		L656.1,436.25C654.6,441.61,649.35,445.36,643.33,445.36z"/>
	<polygon class="st3" points="592.12,31.32 578.06,30.83 576.74,43.87 562.86,44 560.06,56.31 549.69,58.1 550.6,63.35 
		564.46,60.95 567.12,49.28 581.55,49.15 582.86,36.32 595.6,36.77 	"/>
	<polygon class="st2" points="422.16,271.03 420.01,278.54 431.72,283.33 429.93,294.7 438.1,299.72 435.56,303.86 424.63,297.15 
		426.32,286.37 414.15,281.38 417.38,270.08 	"/>
	<polygon class="st3" points="742.56,233.18 731.83,235.53 725.04,226.62 713.19,230.1 708.88,218.38 695.31,221.73 690.02,211.42 
		676.43,212.51 676.85,217.65 687,216.84 692.59,227.71 705.63,224.49 710.01,236.41 723.09,232.57 729.72,241.27 739.67,239.09 
		742.83,245.72 747.48,243.5 	"/>
	<polygon class="st3" points="457.44,266.14 464.02,261.84 461.21,257.51 450.58,264.46 457.26,276.33 450.27,284.75 454.63,293.95 
		448.88,298.52 452.09,302.56 461.04,295.45 456.34,285.51 463.5,276.89 	"/>
	
		<rect x="308.28" y="358.32" transform="matrix(-1 -1.224647e-16 1.224647e-16 -1 821.6702 784.2202)" class="st2" width="205.12" height="67.58"/>
	
		<rect x="223.28" y="354.46" transform="matrix(-1 -1.224647e-16 1.224647e-16 -1 599.972 972.588)" class="st4" width="153.41" height="263.68"/>
	
		<rect x="504.16" y="345.05" transform="matrix(-1 -1.224647e-16 1.224647e-16 -1 1030.0176 996.999)" class="st5" width="21.69" height="306.89"/>
	
		<rect x="286.98" y="617.48" transform="matrix(-1 -1.224647e-16 1.224647e-16 -1 589.5307 1269.4355)" class="st5" width="15.57" height="34.47"/>
	
		<rect x="200.69" y="618.01" transform="matrix(-1 -1.224647e-16 1.224647e-16 -1 416.9396 1269.9485)" class="st5" width="15.57" height="33.92"/>
	<g>
		<path class="st0" d="M331.64,339.21c0.37,0,0.74-0.04,1.12-0.13c3.2-0.72,5.3-4.35,4.69-8.11c0,0-25.42-146.76-27.41-147.52
			c-0.63-0.24-2.12-3.25-2.18-3.25c-0.31,0.01-0.61,0.05-0.92,0.12c-3.2,0.72-5.3,4.35-4.69,8.11l23.61,145.13
			C326.39,336.9,328.86,339.21,331.64,339.21z"/>
		<path class="st6" d="M383.34,193.97l23.51,141.48l-72.95,1.01l-26.07-156.24l66.36,3.69C379.2,184.13,382.71,190.1,383.34,193.97z
			"/>
		<path class="st7" d="M509.12,332.39c0,0.08,0,0.16,0,0.24l0,0c0.01,4.51-2.63,8.23-5.91,8.24l-92.65,0.23
			c-3.28,0.01-5.95-3.64-5.95-8.15c0-0.19,0.01-0.38,0.02-0.57H509.12z"/>
		<path class="st0" d="M482.32,332.38c0,0.08,0.01,0.16,0.01,0.25l0,0c0.01,4.57-3.97,8.29-8.89,8.3l-138.78,0.29
			c-4.92,0.01-8.91-3.69-8.92-8.27c0-0.19,0.01-0.38,0.02-0.57H482.32z"/>
	</g>
	<path class="st8" d="M453.66,588.45c-5.64,10.49-19.43,45.06-19.95,47.68c-0.15,0.76-2.11,3.28-2.76,3.76
		c-17.8,1.78-30.82-7.77-40.71-17.2c9.34,0.66,23.6-1.76,25.68-2.11c5.42-0.93,4.84-17.4,7.93-35.9
		C428.66,586.88,446.67,582.12,453.66,588.45z"/>
	<path class="st3" d="M433.78,635.9c-1.47,5.79-7.61,16.46-8.79,16.16c-1.41-0.37-53.96-19.23-58.48-26.76
		c-2.79-4.64,11.58-4.87,23.14-4.28C399.54,630.45,430.74,637.4,433.78,635.9z"/>
	<path class="st9" d="M623.43,440.57l-122.23,7.04l-44.56,154.31l-35.41-6.93c0,0,19.88-159.65,31.45-173.01
		c31.58-36.44,141.9-32.13,141.9-32.13L623.43,440.57z"/>
	<path class="st8" d="M529.11,596.75c-0.45,7.11-2.08,15.72-1.76,24.02c0.21,5.57,2.28,12.35,2.53,13.39
		c0.18,0.75-0.55,3.86-0.94,4.56c-15.44,9.04-31.26,5.78-44.17,1.34c8.76-3.3,14.85-9.86,17.05-12.25
		c3.72-4.04,1.07-16.16-3.84-34.27C503.27,593.55,520.12,593.91,529.11,596.75z"/>
	<path class="st10" d="M610.77,379.02c0,0-114,2.14-142.64,44.07c-21.43,31.37,31.94,186.11,31.94,186.11l32.12-5.92
		c0,0-7.4-104.86-12.75-139.45c-0.91-5.86-5.08-23.18-5.08-23.18s14.25,4.24,40.72,5.93c36.38,2.32,89.31,1.71,100.74-4.24
		c19.75-10.27,28.03-38.12,19.34-56.28C666.46,367.9,610.77,379.02,610.77,379.02z"/>
	<path class="st3" d="M529.85,633.92c2,3.67,3.02,17.88,1.81,18.1c-1.44,0.26-61.82,3.64-69.07-1.32
		c-4.47-3.06,11.42-6.36,22.18-10.64C497.69,644.5,529.2,637.85,529.85,633.92z"/>
	<path class="st11" d="M523.2,303.12c0,0-33.2,8.3-49.8,13.58c-16.6,5.28-37.73,6.79-37.73,6.79l-17.86,9.43l38.23,1.13l89.03-7.92
		l7.55-20.75L523.2,303.12z"/>
	<path class="st6" d="M548.1,235.97l-15.84,2.26c0,0-5.66,1.13-10.19,26.03c-4.53,24.9-10.94,38.1-10.94,38.1l38.86,15.47
		C578.39,278.61,597.85,232.15,548.1,235.97z"/>
	<path class="st3" d="M547.14,213.39c-10.12,1.77-10.74,9.94-10.74,9.94l-10.36,43.2c0,0-0.95,18.3,1.15,25.3
		c4.09,13.62,12.34,18.99,25.87,23.62c17.93,6.14,25.02,21.6,32.76,30.62c13.42,15.65,2.5,34.38,2.5,34.38l93.79,13.16
		c0,0,1.27-18.31-19.98-69.74C643.69,279.21,599.47,204.23,547.14,213.39z"/>
	<path class="st8" d="M580.55,218.61c-11.51-12.64-40.74,3.02-31.69,44.89c0.06,0.27,3.37,44.24,0.58,49.83
		c-1.7,3.39-42.44,1.7-67.1,6.89c0,0-26.67-9.9-36.03-10.56c-6.94-0.49-23.45,4.78-23.45,4.78s-21.27,15.7-18.3,18.3
		c4.07,3.55,14.08-11.95,22.51-11.95c0,0-15.37,11.87-10.63,12.14c4.74,0.26,11.29-3.29,14.71-4.34c3.42-1.05,16.03,5.28,27.16,6.6
		c1.84,0.22,9.11-0.18,17.54,0.94c8.56,1.14,18.23,4.25,29.55,4.78c30.45,1.42,64.92,4.77,73.45-3.81
		C585.22,330.7,599.9,239.88,580.55,218.61z"/>
	<path class="st6" d="M585.69,311.19c-18.6-2.41-37.24-9.45-37.24-9.45s-1.53-36.84-1.67-38.23c-1.19-19.24-0.47-34.72,7.58-44.71
		c4.06-5.03,8.39-6.22,13.54-6.22c4.83,0,11.55,1.89,15.09,6.41c12.97,16.56,8.01,64.75,3.96,91.25l-0.17,1.09L585.69,311.19z"/>
	<path class="st10" d="M538.73,142.15c1.43-12.41,1.41-59.57,30.07-58.59c28.66,0.97,28.83,32.52,52.04-5.49
		c21.5-35.21,61.22-12.46,57.53,16.68c4.1,0.42,8.12,1.8,11.75,4.2c12.53,8.33,15.56,25.82,6.76,39.06c-1.4,2.11-1.28,4.48-3.06,6.1
		c0.88,13.16-4.09,27.08-16.54,39.8c-34.01,34.76-52.58-12.15-70.89-13.32c-18.31-1.17-9.31,15.03-26.87,23
		c-17.57,7.97-29.5,2.74-49.06-31.82l-4.67-9.39C525.78,152.4,537.3,154.56,538.73,142.15z"/>
	<path class="st10" d="M522.2,133.61c20.17,14.07,24.62,49.91,6.06,67.02c-12.06,11.12-35.83,13.06-49.02,2.03
		c-21.4-17.89-23.79-38.14-16.2-54.04C472.83,128.1,505.56,122,522.2,133.61z"/>
	<path class="st8" d="M528.5,182.16c0,0,6.21,19.29,28.09,30.42c2.69,1.37-30.53,54.8-30.54,54.16c-0.1-4.12,5.74-28.19,4.32-31.15
		c-3.89-8.1-26.44-45.01-26.44-45.01L528.5,182.16z"/>
	<path class="st11" d="M515.95,186.46l-12.02,4.12l0,0c0.02,0.04,9.91,16.22,17.72,29.5c2.77-2.27,5.22-5.56,7.17-10.07
		c3.13-7.22,3.6-14.73,2.4-21.87c-1.96-3.59-2.73-5.98-2.73-5.98L515.95,186.46z"/>
	<path class="st8" d="M483.73,145.96c0,0,10.76-4.55,22.47-0.17c11.71,4.39,32.74,32.85,21.9,57.81
		c-10.84,24.97-36.75,12.56-48.26-3.28C468.34,184.49,456.9,160.62,483.73,145.96z"/>
	<path class="st10" d="M530.37,160.1c-9.28-16.11-19.45-25.56-33.76-21.89c-14.3,3.67-27.13,6.11-28.09,22.9l-1.03,2.87
		c0,0,20.71-10.12,29.3-2.2c8.59,7.92,26.58,10.5,28.97,15.99c2.39,5.49,8.31,15.43,8.31,15.43l1.07-6.17
		C535.14,187.02,539.65,176.2,530.37,160.1z"/>
	<path class="st8" d="M508.53,169.96c1.94,5,6.31,7.88,9.77,6.44c3.46-1.44,4.7-6.65,2.76-11.65c-1.94-5-6.31-7.88-9.77-6.44
		C507.83,159.75,506.6,164.97,508.53,169.96z"/>
	
		<rect x="139.09" y="354.46" transform="matrix(-1 -1.224647e-16 1.224647e-16 -1 527.6612 972.588)" class="st2" width="249.47" height="263.68"/>
	
		<rect x="385.09" y="348.61" transform="matrix(-1 -1.224647e-16 1.224647e-16 -1 790.7908 1000.6801)" class="st5" width="20.61" height="303.47"/>
	
		<rect x="133.65" y="350.89" transform="matrix(-1 -1.224647e-16 1.224647e-16 -1 278.9416 1005.2505)" class="st5" width="11.64" height="303.47"/>
	<path class="st5" d="M93.59,359.56H541.8c4.7,0,8.51-3.81,8.51-8.51v-1.66c0-4.7-3.81-8.51-8.51-8.51H93.59
		c-4.7,0-8.51,3.81-8.51,8.51v1.66C85.08,355.76,88.89,359.56,93.59,359.56z"/>
</g>
</svg>
