<?xml version="1.0" encoding="utf-8"?>
<!-- Generator: Adobe Illustrator 24.2.1, SVG Export Plug-In . SVG Version: 6.00 Build 0)  -->
<svg version="1.1" id="Layer_1" xmlns="http://www.w3.org/2000/svg" xmlns:xlink="http://www.w3.org/1999/xlink" x="0px" y="0px"
	 viewBox="0 0 2161 870" style="enable-background:new 0 0 2161 870;" xml:space="preserve">
<style type="text/css">
	.st0{fill:#1D3060;}
	.st1{opacity:0.39;}
	.st2{fill:#006080;}
	.st3{opacity:0.25;fill:#FFFFFF;}
	.st4{fill:#FFFFFF;}
</style>
<rect y="0.18" class="st0" width="2161.52" height="446.27"/>
<g class="st1">
	<path class="st2" d="M1966.98,100.04l-2.35-3.43c-0.34-0.49-0.46-1.1-0.35-1.68l3.94-20.18l-20.59-4.01
		c-0.57-0.11-1.08-0.44-1.41-0.92l-2.51-3.65c-1.13-1.64,0.3-3.82,2.26-3.44l28.78,5.61c1.2,0.23,1.99,1.4,1.75,2.61l-5.51,28.27
		C1970.62,101.14,1968.1,101.66,1966.98,100.04z"/>
	<path class="st3" d="M1894.98,96.49l4.09,0.76c0.59,0.11,1.1,0.45,1.44,0.94l11.49,17.06l17.39-11.72
		c0.48-0.33,1.07-0.45,1.65-0.34l4.35,0.81c1.95,0.36,2.48,2.91,0.84,4.03l-24.32,16.38c-1.02,0.69-2.4,0.42-3.08-0.6l-16.09-23.89
		C1891.64,98.28,1893.05,96.13,1894.98,96.49z"/>
	<path class="st2" d="M1866.84,158.34l-2.35-3.43c-0.34-0.49-0.46-1.1-0.35-1.68l3.94-20.18l-20.59-4.01
		c-0.57-0.11-1.08-0.44-1.41-0.92l-2.51-3.65c-1.13-1.64,0.3-3.82,2.26-3.44l28.78,5.61c1.2,0.23,1.99,1.4,1.75,2.61l-5.51,28.27
		C1870.48,159.45,1867.96,159.97,1866.84,158.34z"/>
	<path class="st3" d="M1802.55,130.92l4.09,0.76c0.59,0.11,1.1,0.45,1.44,0.94l11.49,17.06l17.39-11.72
		c0.48-0.33,1.07-0.45,1.65-0.34l4.35,0.81c1.95,0.36,2.48,2.91,0.84,4.03l-24.32,16.38c-1.02,0.69-2.4,0.42-3.08-0.6l-16.09-23.89
		C1799.2,132.71,1800.62,130.56,1802.55,130.92z"/>
	<path class="st2" d="M1917.87,82.08l-3.66-1.97c-0.52-0.28-0.91-0.76-1.08-1.34l-5.73-19.75l-20.14,5.84
		c-0.56,0.16-1.16,0.1-1.67-0.18l-3.9-2.1c-1.75-0.94-1.47-3.53,0.43-4.09l28.16-8.17c1.18-0.34,2.41,0.34,2.75,1.51l8.02,27.66
		C1921.61,81.4,1919.61,83.02,1917.87,82.08z"/>
	<path class="st2" d="M1819.41,125.74l-3.41-2.38c-0.49-0.34-0.82-0.86-0.92-1.45l-3.44-20.28l-20.68,3.51
		c-0.57,0.1-1.16-0.03-1.64-0.37l-3.63-2.53c-1.63-1.14-1.06-3.68,0.9-4.01l28.91-4.9c1.21-0.21,2.36,0.61,2.56,1.82l4.81,28.4
		C1823.2,125.48,1821.02,126.86,1819.41,125.74z"/>
	<path class="st3" d="M1842.9,73.79l4.09,0.76c0.59,0.11,1.1,0.45,1.44,0.94l11.49,17.06l17.39-11.72c0.48-0.33,1.07-0.45,1.65-0.34
		l4.35,0.81c1.95,0.36,2.48,2.91,0.84,4.03l-24.32,16.38c-1.02,0.69-2.4,0.42-3.08-0.6l-16.09-23.89
		C1839.55,75.58,1840.96,73.43,1842.9,73.79z"/>
	<path class="st2" d="M1952.91,161.2l-2.35-3.43c-0.34-0.49-0.46-1.1-0.35-1.68l3.94-20.18l-20.59-4.01
		c-0.57-0.11-1.08-0.44-1.41-0.92l-2.51-3.65c-1.13-1.64,0.3-3.82,2.26-3.44l28.78,5.61c1.2,0.23,1.99,1.4,1.76,2.61l-5.51,28.27
		C1956.55,162.3,1954.03,162.82,1952.91,161.2z"/>
	<path class="st3" d="M1888.13,146.59l4.09,0.76c0.59,0.11,1.1,0.45,1.44,0.94l11.49,17.06l17.39-11.72
		c0.48-0.33,1.07-0.45,1.65-0.34l4.35,0.81c1.95,0.36,2.48,2.91,0.84,4.03l-24.32,16.38c-1.02,0.69-2.4,0.42-3.08-0.6l-16.09-23.89
		C1884.78,148.39,1886.2,146.23,1888.13,146.59z"/>
	<path class="st2" d="M1860.28,69.18l-4.03-1.03c-0.58-0.15-1.07-0.52-1.37-1.04l-10.33-17.78l-18.14,10.53
		c-0.5,0.29-1.1,0.38-1.67,0.23l-4.29-1.1c-1.93-0.49-2.28-3.07-0.57-4.07l25.35-14.73c1.06-0.62,2.42-0.26,3.04,0.81l14.46,24.91
		C1863.74,67.62,1862.19,69.67,1860.28,69.18z"/>
	<path class="st2" d="M1779.92,87.62l-2.35-3.43c-0.34-0.49-0.46-1.1-0.35-1.68l3.94-20.18l-20.59-4.01
		c-0.57-0.11-1.08-0.44-1.41-0.92l-2.51-3.65c-1.13-1.64,0.3-3.82,2.26-3.44l28.78,5.61c1.2,0.23,1.99,1.4,1.76,2.61l-5.51,28.27
		C1783.55,88.73,1781.03,89.25,1779.92,87.62z"/>
	<path class="st3" d="M1707.92,84.07l4.09,0.76c0.59,0.11,1.1,0.45,1.44,0.94l11.49,17.06l17.39-11.72
		c0.48-0.33,1.07-0.45,1.65-0.34l4.35,0.81c1.95,0.36,2.48,2.91,0.84,4.03l-24.32,16.38c-1.02,0.69-2.4,0.42-3.08-0.6l-16.09-23.89
		C1704.57,85.87,1705.98,83.71,1707.92,84.07z"/>
	<path class="st2" d="M1679.78,145.93l-2.35-3.43c-0.34-0.49-0.46-1.1-0.35-1.68l3.94-20.18l-20.59-4.01
		c-0.57-0.11-1.08-0.44-1.41-0.92l-2.51-3.65c-1.13-1.64,0.3-3.82,2.26-3.44l28.78,5.61c1.2,0.23,1.99,1.4,1.75,2.61l-5.51,28.27
		C1683.41,147.03,1680.89,147.55,1679.78,145.93z"/>
	<path class="st3" d="M1615.48,118.51l4.09,0.76c0.59,0.11,1.1,0.45,1.44,0.94l11.49,17.06l17.39-11.72
		c0.48-0.33,1.07-0.45,1.65-0.34l4.35,0.81c1.95,0.36,2.48,2.91,0.84,4.03l-24.32,16.38c-1.02,0.69-2.4,0.42-3.08-0.6l-16.09-23.89
		C1612.14,120.3,1613.55,118.15,1615.48,118.51z"/>
	<path class="st2" d="M1730.8,69.67l-3.66-1.97c-0.52-0.28-0.91-0.76-1.08-1.34l-5.73-19.75l-20.14,5.84
		c-0.56,0.16-1.16,0.1-1.67-0.18l-3.9-2.1c-1.75-0.94-1.47-3.53,0.43-4.09l28.16-8.17c1.18-0.34,2.41,0.34,2.75,1.51l8.02,27.66
		C1734.54,68.99,1732.54,70.6,1730.8,69.67z"/>
	<path class="st2" d="M1632.34,113.32l-3.41-2.38c-0.49-0.34-0.82-0.86-0.92-1.45l-3.44-20.28l-20.68,3.51
		c-0.57,0.1-1.16-0.03-1.64-0.37l-3.63-2.53c-1.63-1.14-1.06-3.68,0.9-4.01l28.91-4.9c1.21-0.21,2.36,0.61,2.56,1.82l4.81,28.4
		C1636.13,113.07,1633.96,114.44,1632.34,113.32z"/>
	<path class="st3" d="M1655.83,61.38l4.09,0.76c0.59,0.11,1.1,0.45,1.44,0.94l11.49,17.06l17.39-11.72
		c0.48-0.33,1.07-0.45,1.65-0.34l4.35,0.81c1.95,0.36,2.48,2.91,0.84,4.03l-24.32,16.38c-1.02,0.69-2.4,0.42-3.08-0.6l-16.09-23.89
		C1652.48,63.17,1653.9,61.02,1655.83,61.38z"/>
	<path class="st2" d="M1765.84,148.78l-2.35-3.43c-0.34-0.49-0.46-1.1-0.35-1.68l3.94-20.18l-20.59-4.01
		c-0.57-0.11-1.08-0.44-1.41-0.92l-2.51-3.65c-1.13-1.64,0.3-3.82,2.26-3.44l28.78,5.61c1.2,0.23,1.99,1.4,1.75,2.61l-5.51,28.27
		C1769.48,149.88,1766.96,150.4,1765.84,148.78z"/>
	<path class="st3" d="M1701.06,134.18l4.09,0.76c0.59,0.11,1.1,0.45,1.44,0.94l11.49,17.06l17.39-11.72
		c0.48-0.33,1.07-0.45,1.65-0.34l4.35,0.81c1.95,0.36,2.48,2.91,0.84,4.03l-24.32,16.38c-1.02,0.69-2.4,0.42-3.08-0.6l-16.09-23.89
		C1697.72,135.97,1699.13,133.82,1701.06,134.18z"/>
	<path class="st2" d="M1673.21,56.77l-4.03-1.03c-0.58-0.15-1.07-0.52-1.37-1.04l-10.33-17.78l-18.14,10.53
		c-0.5,0.29-1.1,0.38-1.67,0.23l-4.29-1.1c-1.93-0.49-2.28-3.07-0.57-4.07l25.35-14.73c1.06-0.62,2.42-0.26,3.04,0.81l14.46,24.91
		C1676.67,55.2,1675.12,57.25,1673.21,56.77z"/>
	<path class="st2" d="M1589.45,91.19l-2.35-3.43c-0.34-0.49-0.46-1.1-0.35-1.68l3.94-20.18l-20.59-4.01
		c-0.57-0.11-1.08-0.44-1.41-0.92l-2.51-3.65c-1.13-1.64,0.3-3.82,2.26-3.44l28.78,5.61c1.2,0.23,1.99,1.4,1.75,2.61l-5.51,28.27
		C1593.09,92.29,1590.57,92.81,1589.45,91.19z"/>
	<path class="st3" d="M1517.45,87.64l4.09,0.76c0.59,0.11,1.1,0.45,1.44,0.94l11.49,17.06l17.39-11.72
		c0.48-0.33,1.07-0.45,1.65-0.34l4.35,0.81c1.95,0.36,2.48,2.91,0.84,4.03l-24.32,16.38c-1.02,0.69-2.4,0.42-3.08-0.6l-16.09-23.89
		C1514.11,89.43,1515.52,87.28,1517.45,87.64z"/>
	<path class="st2" d="M1489.31,149.49l-2.35-3.43c-0.34-0.49-0.46-1.1-0.35-1.68l3.94-20.18l-20.59-4.01
		c-0.57-0.11-1.08-0.44-1.41-0.92l-2.51-3.65c-1.13-1.64,0.3-3.82,2.26-3.44l28.78,5.61c1.2,0.23,1.99,1.4,1.75,2.61l-5.51,28.27
		C1492.95,150.59,1490.43,151.12,1489.31,149.49z"/>
	<path class="st3" d="M1425.02,122.07l4.09,0.76c0.59,0.11,1.1,0.45,1.44,0.94l11.49,17.06l17.39-11.72
		c0.48-0.33,1.07-0.45,1.65-0.34l4.35,0.81c1.95,0.36,2.48,2.91,0.84,4.03l-24.32,16.38c-1.02,0.69-2.4,0.42-3.08-0.6l-16.09-23.89
		C1421.68,123.86,1423.09,121.71,1425.02,122.07z"/>
	<path class="st2" d="M1540.34,73.23l-3.66-1.97c-0.52-0.28-0.91-0.76-1.08-1.34l-5.73-19.75l-20.14,5.84
		c-0.56,0.16-1.16,0.1-1.67-0.18l-3.9-2.1c-1.75-0.94-1.47-3.53,0.43-4.09l28.16-8.17c1.18-0.34,2.41,0.34,2.75,1.51l8.02,27.66
		C1544.08,72.55,1542.08,74.17,1540.34,73.23z"/>
	<path class="st2" d="M1441.88,116.88l-3.41-2.38c-0.49-0.34-0.82-0.86-0.92-1.45l-3.44-20.28l-20.68,3.51
		c-0.57,0.1-1.16-0.03-1.64-0.37l-3.63-2.53c-1.63-1.14-1.06-3.68,0.9-4.01l28.91-4.9c1.21-0.21,2.36,0.61,2.56,1.82l4.81,28.4
		C1445.67,116.63,1443.49,118.01,1441.88,116.88z"/>
	<path class="st3" d="M1465.37,64.94l4.09,0.76c0.59,0.11,1.1,0.45,1.44,0.94l11.49,17.06l17.39-11.72
		c0.48-0.33,1.07-0.45,1.65-0.34l4.35,0.81c1.95,0.36,2.48,2.91,0.84,4.03l-24.32,16.38c-1.02,0.69-2.4,0.42-3.08-0.6l-16.09-23.89
		C1462.02,66.73,1463.43,64.58,1465.37,64.94z"/>
	<path class="st2" d="M1575.38,152.34l-2.35-3.43c-0.34-0.49-0.46-1.1-0.35-1.68l3.94-20.18l-20.59-4.01
		c-0.57-0.11-1.08-0.44-1.41-0.92l-2.51-3.65c-1.13-1.64,0.3-3.82,2.26-3.44l28.78,5.61c1.2,0.23,1.99,1.4,1.75,2.61l-5.51,28.27
		C1579.02,153.44,1576.5,153.97,1575.38,152.34z"/>
	<path class="st3" d="M1510.6,137.74l4.09,0.76c0.59,0.11,1.1,0.45,1.44,0.94l11.49,17.06l17.39-11.72
		c0.48-0.33,1.07-0.45,1.65-0.34l4.35,0.81c1.95,0.36,2.48,2.91,0.84,4.03l-24.32,16.38c-1.02,0.69-2.4,0.42-3.08-0.6l-16.09-23.89
		C1507.25,139.53,1508.67,137.38,1510.6,137.74z"/>
	<path class="st2" d="M1482.75,60.33l-4.03-1.03c-0.58-0.15-1.07-0.52-1.37-1.04l-10.33-17.78l-18.14,10.53
		c-0.5,0.29-1.1,0.38-1.67,0.23l-4.29-1.1c-1.93-0.49-2.28-3.07-0.57-4.07l25.35-14.73c1.06-0.62,2.42-0.26,3.04,0.81l14.46,24.91
		C1486.21,58.77,1484.66,60.82,1482.75,60.33z"/>
	<path class="st3" d="M1422.78,69.7l-4.03-1.03c-0.58-0.15-1.07-0.52-1.37-1.04l-10.33-17.78l-18.14,10.53
		c-0.5,0.29-1.1,0.38-1.67,0.23l-4.29-1.1c-1.93-0.49-2.28-3.07-0.57-4.07l25.35-14.73c1.06-0.62,2.42-0.26,3.04,0.81l14.46,24.91
		C1426.24,68.13,1424.68,70.19,1422.78,69.7z"/>
	<path class="st3" d="M1366.86,113.39l4.09,0.76c0.59,0.11,1.1,0.45,1.44,0.94l11.49,17.06l17.39-11.72
		c0.48-0.33,1.07-0.45,1.65-0.34l4.35,0.81c1.95,0.36,2.48,2.91,0.84,4.03l-24.32,16.38c-1.02,0.69-2.4,0.42-3.08-0.6l-16.09-23.89
		C1363.51,115.18,1364.92,113.03,1366.86,113.39z"/>
	<path class="st3" d="M1278.64,60.34l4.09,0.76c0.59,0.11,1.1,0.45,1.44,0.94l11.49,17.06l17.39-11.72
		c0.48-0.33,1.07-0.45,1.65-0.34l4.35,0.81c1.95,0.36,2.48,2.91,0.84,4.03l-24.32,16.38c-1.02,0.69-2.4,0.42-3.08-0.6l-16.09-23.89
		C1275.29,62.13,1276.71,59.98,1278.64,60.34z"/>
	<path class="st2" d="M1384.94,104.83l-3.41-2.38c-0.49-0.34-0.82-0.86-0.92-1.45l-3.44-20.28l-20.68,3.51
		c-0.57,0.1-1.16-0.03-1.64-0.37l-3.63-2.53c-1.63-1.14-1.06-3.68,0.9-4.01l28.91-4.9c1.21-0.21,2.36,0.61,2.56,1.82l4.81,28.4
		C1388.73,104.58,1386.56,105.95,1384.94,104.83z"/>
	<path class="st2" d="M1348.58,64.89l-3.41-2.38c-0.49-0.34-0.82-0.86-0.92-1.45l-3.44-20.28l-20.68,3.51
		c-0.57,0.1-1.16-0.03-1.64-0.37l-3.63-2.53c-1.63-1.14-1.06-3.68,0.9-4.01l28.91-4.9c1.21-0.21,2.36,0.61,2.56,1.82l4.81,28.4
		C1352.37,64.64,1350.2,66.02,1348.58,64.89z"/>
</g>
<rect x="0" y="446" class="st4" width="2162" height="430"/>
</svg>
